# xmcd
#
# Track frame offsets:
#	262
#	13958
#	25960
#	32587
#	43500
#	51544
#	62291
#	80109
#	90945
#	106860
#	125872
#	143334
#	160583
#	173395
#	190105
#
# Disc length: 2865 seconds
#
# Revision: 1
# Processed by: cddbd v1.5.2PL0 Copyright (c) Steve Scherf et al.
# Submitted via: audiograbber 1.83.01
#
DISCID=b60b2e0f
DTITLE=Texas Tenors, The - First 5 Years Live, The
DYEAR=2014
DGENRE=Country
TTITLE0=God Bless the USA
TTITLE1=O Sole Mio
TTITLE2=Thank God I'm a Country Boy
TTITLE3=Take Me Home, Country Roads
TTITLE4=Danny Boy
TTITLE5=He Looked Beyond My Fault
TTITLE6=The Climb
TTITLE7=Because
TTITLE8=Wild Horses
TTITLE9=You Should Dream
TTITLE10=Unchained Melody
TTITLE11=Bless the Broken Road
TTITLE12=Rocky Top
TTITLE13=Somewhere
TTITLE14=My Way
EXTD=
EXTT0=
EXTT1=
EXTT2=
EXTT3=
EXTT4=
EXTT5=
EXTT6=
EXTT7=
EXTT8=
EXTT9=
EXTT10=
EXTT11=
EXTT12=
EXTT13=
EXTT14=
PLAYORDER=
